<svg width="28" height="28" viewBox="0 0 28 28" fill="none" xmlns="http://www.w3.org/2000/svg">
<g id="Logo" clip-path="url(#clip0_858_23263)">
<path id="Vector" d="M2.53027 8.51135V19.4873C2.53027 20.1929 2.89987 20.8313 3.51587 21.1897L13.0247 26.6777C13.6295 27.0249 14.3799 27.0249 14.9847 26.6777L24.4935 21.1897C25.0983 20.8425 25.4791 20.1929 25.4791 19.4873V8.51135C25.4791 7.80575 25.1095 7.16735 24.4935 6.80895L14.9847 1.32095C14.3799 0.973747 13.6295 0.973747 13.0247 1.32095L3.51587 6.80895C2.91107 7.15615 2.54147 7.80575 2.54147 8.51135H2.53027Z" fill="#213147"/>
<g id="Group">
<g id="Group_2">
<path id="Vector_2" d="M16.0713 16.1278L14.7161 19.8462C14.6825 19.947 14.6825 20.059 14.7161 20.171L17.0457 26.5662L19.7449 25.0094L16.5081 16.1278C16.4297 15.9262 16.1497 15.9262 16.0713 16.1278Z" fill="#12AAFF"/>
</g>
<g id="Group_3">
<path id="Vector_3" d="M18.7928 9.87776C18.7144 9.67616 18.4344 9.67616 18.356 9.87776L17.0008 13.5962C16.9672 13.697 16.9672 13.809 17.0008 13.921L20.82 24.393L23.5192 22.8362L18.7928 9.88896V9.87776Z" fill="#12AAFF"/>
</g>
</g>
<path id="Vector_4" d="M13.999 1.736C14.0662 1.736 14.1334 1.7584 14.1894 1.792L24.471 7.728C24.5942 7.7952 24.6614 7.9296 24.6614 8.064V19.936C24.6614 20.0704 24.583 20.2048 24.471 20.272L14.1894 26.208C14.1334 26.2416 14.0662 26.264 13.999 26.264C13.9318 26.264 13.8646 26.2416 13.8086 26.208L3.52696 20.272C3.40376 20.2048 3.33656 20.0704 3.33656 19.936V8.0528C3.33656 7.9184 3.41496 7.784 3.52696 7.7168L13.8086 1.7808C13.8646 1.7472 13.9318 1.7248 13.999 1.7248V1.736ZM13.999 0C13.6294 0 13.271 0.0896 12.935 0.28L2.65336 6.216C1.99256 6.5968 1.58936 7.2912 1.58936 8.0528V19.9248C1.58936 20.6864 1.99256 21.3808 2.65336 21.7616L12.935 27.6976C13.2598 27.888 13.6294 27.9776 13.999 27.9776C14.3686 27.9776 14.727 27.888 15.063 27.6976L25.3446 21.7616C26.0054 21.3808 26.4086 20.6864 26.4086 19.9248V8.0528C26.4086 7.2912 26.0054 6.5968 25.3446 6.216L15.0518 0.28C14.727 0.0896 14.3574 0 13.9878 0H13.999Z" fill="#9DCCED"/>
<path id="Vector_5" d="M7.18945 24.405L8.14145 21.8066L10.0455 23.3858L8.26465 25.021L7.18945 24.405Z" fill="#213147"/>
<path id="Vector_6" d="M13.1254 7.21237H10.5158C10.3254 7.21237 10.1462 7.33557 10.079 7.51477L4.49023 22.8364L7.18943 24.3932L13.3494 7.51477C13.4054 7.35797 13.2934 7.20117 13.1366 7.20117L13.1254 7.21237Z" fill="white"/>
<path id="Vector_7" d="M17.695 7.21237H15.0854C14.895 7.21237 14.7158 7.33557 14.6486 7.51477L8.26465 25.0092L10.9638 26.566L17.9078 7.51477C17.9638 7.35797 17.8518 7.20117 17.695 7.20117V7.21237Z" fill="white"/>
</g>
<defs>
<clipPath id="clip0_858_23263">
<rect width="28" height="28" fill="white"/>
</clipPath>
</defs>
</svg>
