<svg width="48" height="48" viewBox="0 0 48 48" fill="none" xmlns="http://www.w3.org/2000/svg">
<g clip-path="url(#clip0_933_22455)">
<path d="M23.9999 46.7049C36.539 46.7049 46.7039 36.5399 46.7039 24.0009C46.7039 11.4618 36.539 1.29688 23.9999 1.29688C11.4608 1.29688 1.2959 11.4618 1.2959 24.0009C1.2959 36.5399 11.4608 46.7049 23.9999 46.7049Z" fill="white" stroke="#0052FF" stroke-width="2.4"/>
<mask id="mask0_933_22455" style="mask-type:luminance" maskUnits="userSpaceOnUse" x="13" y="6" width="22" height="36">
<path d="M34.5604 6.71875H13.3438V41.2788H34.5604V6.71875Z" fill="white"/>
</mask>
<g mask="url(#mask0_933_22455)">
<path d="M23.9489 6.71875L23.7173 7.50608V30.3528L23.9489 30.5841L34.5541 24.3154L23.9489 6.71875Z" fill="#6697FF"/>
<path d="M23.949 6.71875L13.3438 24.3154L23.949 30.5842V19.495V6.71875Z" fill="#0052FF"/>
<path d="M23.9489 32.5918L23.8184 32.7509V40.8894L23.9489 41.2707L34.5604 26.3262L23.9489 32.5918Z" fill="#6697FF"/>
<path d="M23.949 41.2707V32.5917L13.3438 26.3262L23.949 41.2707Z" fill="#0052FF"/>
<path d="M23.9487 30.5851L34.5538 24.3163L23.9487 19.4961V30.5851Z" fill="#CCDCFF"/>
<path d="M13.3438 24.3163L23.9488 30.5851V19.4961L13.3438 24.3163Z" fill="#6697FF"/>
</g>
</g>
<defs>
<clipPath id="clip0_933_22455">
<rect width="48" height="48" fill="white"/>
</clipPath>
</defs>
</svg>
