<svg width="48" height="48" viewBox="0 0 48 48" fill="none" xmlns="http://www.w3.org/2000/svg">
<g id="Token=COMP (Dark)" clip-path="url(#clip0_933_22454)">
<path id="Vector" d="M24 48C37.2547 48 48 37.2547 48 24C48 10.7452 37.2547 0 24 0C10.7452 0 0 10.7452 0 24C0 37.2547 10.7452 48 24 48Z" fill="#070A0E"/>
<path id="Vector_2" fill-rule="evenodd" clip-rule="evenodd" d="M14.2749 31.7672C13.5841 31.3445 13.1616 30.5921 13.1616 29.7842V25.2727C13.1616 25.1 13.2079 24.9335 13.2942 24.7854C13.5625 24.3228 14.1577 24.1655 14.6203 24.437L24.8032 30.3733C25.3983 30.7217 25.7652 31.3569 25.7652 32.0477V36.7228C25.7652 36.9356 25.7067 37.1482 25.5955 37.3303C25.2595 37.8791 24.544 38.0518 23.995 37.7158L14.2749 31.7672ZM29.4535 23.2003C30.0487 23.5488 30.4156 24.1841 30.4156 24.8748V34.3605C30.4156 34.6412 30.2645 34.9003 30.0209 35.0358L27.7913 36.291C27.7636 36.3063 27.7327 36.3187 27.7019 36.3281V31.0608C27.7019 30.3795 27.3442 29.7472 26.7582 29.3957L17.8151 24.0453V18.0998C17.8151 17.9271 17.8614 17.7606 17.9477 17.6126C18.216 17.15 18.8112 16.9927 19.2738 17.2641L29.4535 23.2003ZM33.9097 16.194C34.508 16.5394 34.8749 17.1808 34.8749 17.8716V31.727C34.8749 32.0107 34.7176 32.2728 34.4678 32.4086L32.3555 33.5495V23.9034C32.3555 23.222 31.9977 22.5928 31.4148 22.2412L22.2743 16.7584V11.1181C22.2743 10.9454 22.3207 10.7789 22.4039 10.6309C22.6722 10.1683 23.2673 10.011 23.7299 10.2793L33.9097 16.194Z" fill="#00D395"/>
</g>
<defs>
<clipPath id="clip0_933_22454">
<rect width="48" height="48" fill="white"/>
</clipPath>
</defs>
</svg>
