<svg width="48" height="48" viewBox="0 0 48 48" fill="none" xmlns="http://www.w3.org/2000/svg">
<rect width="48" height="48" rx="24" fill="url(#paint0_linear_858_23193)"/>
<mask id="mask0_858_23193" style="mask-type:luminance" maskUnits="userSpaceOnUse" x="10" y="22" width="28" height="21">
<path d="M23.9806 28.2619L13.2862 22.1562L12.9982 22.5979C9.715 27.6475 10.4446 34.2523 14.7646 38.4955C19.8526 43.4875 28.1086 43.4875 33.1966 38.4955C37.5166 34.2523 38.2462 27.6475 34.963 22.5979L34.675 22.1562L23.9806 28.2619Z" fill="white"/>
</mask>
<g mask="url(#mask0_858_23193)">
<path d="M23.9806 42.6244C31.1807 42.6244 37.0174 36.7876 37.0174 29.5876C37.0174 22.3876 31.1807 16.5508 23.9806 16.5508C16.7806 16.5508 10.9438 22.3876 10.9438 29.5876C10.9438 36.7876 16.7806 42.6244 23.9806 42.6244Z" fill="url(#paint1_radial_858_23193)"/>
</g>
<path d="M23.9806 14.6309L14.7646 19.8917L23.9806 25.1525L33.1966 19.8917L23.9806 14.6309Z" fill="url(#paint2_radial_858_23193)"/>
<path d="M24.0002 15.9941L13.2866 22.1573L23.981 28.2629L34.6562 22.1573L24.0002 15.9941Z" fill="url(#paint3_radial_858_23193)"/>
<path d="M23.9806 5.75977L14.7646 19.891L23.9806 25.1518V5.75977Z" fill="url(#paint4_linear_858_23193)"/>
<path d="M23.981 25.1518L33.197 19.891L23.981 5.75977V25.1518Z" fill="url(#paint5_linear_858_23193)"/>
<defs>
<linearGradient id="paint0_linear_858_23193" x1="24" y1="0" x2="24" y2="48" gradientUnits="userSpaceOnUse">
<stop stop-color="#F89791"/>
<stop offset="1" stop-color="#F7C882"/>
</linearGradient>
<radialGradient id="paint1_radial_858_23193" cx="0" cy="0" r="1" gradientUnits="userSpaceOnUse" gradientTransform="translate(23.956 40.2582) rotate(-90.4664) scale(17.41 20.7517)">
<stop stop-color="#C5C6AB"/>
<stop offset="1" stop-color="#7985AB"/>
</radialGradient>
<radialGradient id="paint2_radial_858_23193" cx="0" cy="0" r="1" gradientUnits="userSpaceOnUse" gradientTransform="translate(23.9806 19.8917) scale(0.4608)">
<stop stop-color="#0066FF" stop-opacity="0"/>
<stop offset="1" stop-color="#00C2FF" stop-opacity="0.4"/>
</radialGradient>
<radialGradient id="paint3_radial_858_23193" cx="0" cy="0" r="1" gradientUnits="userSpaceOnUse" gradientTransform="translate(23.9714 22.1285) scale(0.537754)">
<stop stop-color="#AEE6F9" stop-opacity="0.8588"/>
<stop offset="1" stop-color="#C8D6DC"/>
</radialGradient>
<linearGradient id="paint4_linear_858_23193" x1="19.3726" y1="4.79977" x2="19.3726" y2="23.9998" gradientUnits="userSpaceOnUse">
<stop stop-color="#77D4FF"/>
<stop offset="1" stop-color="#93D6F2" stop-opacity="0.898"/>
</linearGradient>
<linearGradient id="paint5_linear_858_23193" x1="28.589" y1="4.79977" x2="28.589" y2="23.9998" gradientUnits="userSpaceOnUse">
<stop stop-color="#506AAC"/>
<stop offset="1" stop-color="#96CFEF" stop-opacity="0.8196"/>
</linearGradient>
</defs>
</svg>
