<svg width="48" height="48" viewBox="0 0 48 48" fill="none" xmlns="http://www.w3.org/2000/svg">
<g id="Token=MATIC">
<rect width="48" height="48" rx="24" fill="#8247E5"/>
<path id="Vector" d="M31.9448 18.8659C31.3692 18.531 30.6208 18.531 29.9876 18.8659L25.4975 21.4333L22.4466 23.1078L17.9566 25.6752C17.381 26.0101 16.6326 26.0101 15.9994 25.6752L12.4304 23.6659C11.8548 23.331 11.4518 22.7171 11.4518 22.0473V18.0845C11.4518 17.4148 11.7972 16.8008 12.4304 16.4659L15.9418 14.5124C16.5175 14.1775 17.2658 14.1775 17.8991 14.5124L21.4105 16.4659C21.9861 16.8008 22.3891 17.4148 22.3891 18.0845V20.6519L25.44 18.9217V16.3543C25.44 15.6845 25.0946 15.0705 24.4614 14.7357L17.9566 11.0519C17.381 10.7171 16.6326 10.7171 15.9994 11.0519L9.37949 14.7357C8.74625 15.0705 8.40088 15.6845 8.40088 16.3543V23.7775C8.40088 24.4473 8.74625 25.0612 9.37949 25.3961L15.9994 29.0798C16.5751 29.4148 17.3234 29.4148 17.9566 29.0798L22.4466 26.5682L25.4975 24.838L29.9876 22.3264C30.5632 21.9915 31.3116 21.9915 31.9448 22.3264L35.4562 24.2798C36.0319 24.6148 36.4348 25.2287 36.4348 25.8985V29.8612C36.4348 30.531 36.0894 31.145 35.4562 31.4798L31.9448 33.4892C31.3692 33.8241 30.6208 33.8241 29.9876 33.4892L26.4762 31.5357C25.9005 31.2008 25.4975 30.5868 25.4975 29.9171V27.3496L22.4466 29.0798V31.6473C22.4466 32.3171 22.792 32.931 23.4253 33.2659L30.0452 36.9496C30.6208 37.2845 31.3692 37.2845 32.0023 36.9496L38.6223 33.2659C39.1979 32.931 39.6009 32.3171 39.6009 31.6473V24.2241C39.6009 23.5543 39.2555 22.9403 38.6223 22.6054L31.9448 18.8659Z" fill="white"/>
</g>
</svg>
