<svg width="48" height="48" viewBox="0 0 48 48" fill="none" xmlns="http://www.w3.org/2000/svg">
<g id="Token=MATICX" clip-path="url(#clip0_933_22453)">
<path id="Vector" d="M48 24C48 10.7452 37.2548 0 24 0C10.7452 0 0 10.7452 0 24C0 37.2548 10.7452 48 24 48C37.2548 48 48 37.2548 48 24Z" fill="#39414A"/>
<path id="Vector_2" d="M29.553 20.2905C29.1564 20.063 28.6492 20.063 28.2006 20.2905L25.0405 22.1627L22.8949 23.3524L19.7934 25.2182C19.3968 25.4457 18.8895 25.4457 18.4408 25.2182L16.0156 23.7424C15.619 23.5149 15.3394 23.0599 15.3394 22.5529V19.7185C15.3394 19.2634 15.567 18.8149 16.0156 18.5288L18.4408 17.1117C18.8376 16.8841 19.3447 16.8841 19.7934 17.1117L22.2187 18.5873C22.6153 18.8149 22.8949 19.2699 22.8949 19.777V21.6493L25.0405 20.401V18.4768C25.0405 18.0218 24.813 17.5732 24.3643 17.2871L19.8518 14.6218C19.4552 14.3943 18.9481 14.3943 18.4994 14.6218L13.8764 17.3457C13.4277 17.5732 13.2002 18.0283 13.2002 18.4768V23.801C13.2002 24.256 13.4277 24.7046 13.8764 24.9907L18.4474 27.656C18.844 27.8835 19.3512 27.8835 19.7998 27.656L22.9014 25.8422L25.0471 24.5941L28.1486 22.7804C28.5452 22.5529 29.0523 22.5529 29.501 22.7804L31.9263 24.1975C32.3229 24.425 32.6025 24.8801 32.6025 25.3871V28.2215C32.6025 28.6766 32.3749 29.1251 31.9263 29.4111L29.5596 30.8283C29.1628 31.0558 28.6557 31.0558 28.207 30.8283L25.7752 29.4111C25.3786 29.1836 25.099 28.7285 25.099 28.2215V26.4077L22.9533 27.656V29.5282C22.9533 29.9833 23.181 30.4318 23.6295 30.7178L28.2006 33.3831C28.5972 33.6106 29.1044 33.6106 29.553 33.3831L34.124 30.7178C34.5206 30.4903 34.8002 30.0352 34.8002 29.5282V24.1455C34.8002 23.6905 34.5727 23.2419 34.124 22.9558L29.553 20.2905Z" fill="white"/>
<path id="Vector_3" d="M41.5983 19.2834C40.5514 15.3764 38.3111 12.1079 35.3746 9.76507C34.9565 9.43155 34.5244 9.11681 34.0796 8.82163M28.7153 41.5974C33.9716 40.1889 38.0721 36.6205 40.3178 32.1029M6.40137 28.7144C7.51494 32.8704 9.97897 36.3038 13.1948 38.6693M19.2843 6.40039C14.3195 7.73071 10.3858 10.9883 8.07239 15.1525" stroke="white" stroke-width="2.4"/>
</g>
<defs>
<clipPath id="clip0_933_22453">
<rect width="48" height="48" fill="white"/>
</clipPath>
</defs>
</svg>
