<svg width="48" height="48" viewBox="0 0 48 48" fill="none" xmlns="http://www.w3.org/2000/svg">
<g id="Token=OP">
<g clip-path="url(#clip0_862_39662)">
<path id="&#232;&#146;&#153;&#231;&#137;&#136;" d="M24 48C37.2548 48 48 37.2548 48 24C48 10.7452 37.2548 0 24 0C10.7452 0 0 10.7452 0 24C0 37.2548 10.7452 48 24 48Z" fill="#FF0420"/>
<path id="Vector" d="M17.07 31.51C15.58 31.51 14.36 31.16 13.41 30.46C12.47 29.75 12 28.73 12 27.42C12 27.14 12.03 26.81 12.09 26.41C12.25 25.51 12.48 24.43 12.78 23.16C13.63 19.72 15.83 18 19.37 18C20.33 18 21.2 18.16 21.96 18.49C22.72 18.8 23.32 19.28 23.76 19.92C24.2 20.55 24.42 21.3 24.42 22.17C24.42 22.43 24.39 22.76 24.33 23.16C24.14 24.27 23.92 25.36 23.65 26.41C23.21 28.12 22.46 29.41 21.38 30.26C20.31 31.1 18.87 31.51 17.07 31.51ZM17.34 28.81C18.04 28.81 18.63 28.6 19.12 28.19C19.62 27.78 19.98 27.15 20.19 26.29C20.48 25.11 20.7 24.09 20.85 23.21C20.9 22.95 20.93 22.68 20.93 22.4C20.93 21.26 20.34 20.69 19.15 20.69C18.45 20.69 17.85 20.9 17.35 21.31C16.86 21.72 16.51 22.35 16.3 23.21C16.07 24.05 15.85 25.07 15.62 26.29C15.57 26.54 15.54 26.8 15.54 27.08C15.53 28.24 16.14 28.81 17.34 28.81Z" fill="white"/>
<path id="Vector_2" d="M25.2898 31.3295C25.1498 31.3295 25.0498 31.2895 24.9698 31.1995C24.9098 31.0995 24.8898 30.9895 24.9098 30.8595L27.4998 18.6595C27.5198 18.5195 27.5898 18.4095 27.7098 18.3195C27.8198 18.2295 27.9398 18.1895 28.0698 18.1895H33.0598C34.4498 18.1895 35.5598 18.4795 36.3998 19.0495C37.2498 19.6295 37.6798 20.4595 37.6798 21.5495C37.6798 21.8595 37.6398 22.1895 37.5698 22.5295C37.2598 23.9695 36.6298 25.0295 35.6698 25.7195C34.7298 26.4095 33.4398 26.7495 31.7998 26.7495H29.2698L28.4098 30.8595C28.3798 30.9995 28.3198 31.1095 28.1998 31.1995C28.0898 31.2895 27.9698 31.3295 27.8398 31.3295H25.2898ZM31.9298 24.1595C32.4598 24.1595 32.9098 24.0195 33.2998 23.7295C33.6998 23.4395 33.9598 23.0295 34.0898 22.4895C34.1298 22.2795 34.1498 22.0895 34.1498 21.9295C34.1498 21.5695 34.0398 21.2895 33.8298 21.0995C33.6198 20.8995 33.2498 20.7995 32.7398 20.7995H30.4898L29.7798 24.1595H31.9298Z" fill="white"/>
</g>
</g>
<defs>
<clipPath id="clip0_862_39662">
<rect width="48" height="48" rx="24" fill="white"/>
</clipPath>
</defs>
</svg>
