<svg width="48" height="48" viewBox="0 0 48 48" fill="none" xmlns="http://www.w3.org/2000/svg">
<g id="Clip path group">
<mask id="mask0_933_22440" style="mask-type:luminance" maskUnits="userSpaceOnUse" x="0" y="0" width="48" height="48">
<g id="clip0_2111_1396">
<path id="Vector" d="M48 24C48 10.7452 37.2548 0 24 0C10.7452 0 0 10.7452 0 24C0 37.2548 10.7452 48 24 48C37.2548 48 48 37.2548 48 24Z" fill="white"/>
</g>
</mask>
<g mask="url(#mask0_933_22440)">
<g id="Group">
<path id="Vector_2" d="M48 24C48 10.7452 37.2548 0 24 0C10.7452 0 0 10.7452 0 24C0 37.2548 10.7452 48 24 48C37.2548 48 48 37.2548 48 24Z" fill="#FF9D7A"/>
<g id="Group_2" filter="url(#filter0_d_933_22440)">
<path id="Vector_3" fill-rule="evenodd" clip-rule="evenodd" d="M13.2183 24.3046L23.9998 7.20117L34.7997 24.3342L23.9998 30.3878L13.2212 24.3248L13.1997 24.3342L13.2097 24.3183L13.1997 24.3127L13.2183 24.3046ZM23.999 32.3756L13.1997 26.2987L23.999 40.8012V32.3756ZM34.7992 26.4085L23.999 32.3756V40.8012L34.7992 26.4085Z" fill="white"/>
</g>
<g id="Group_3" filter="url(#filter1_d_933_22440)">
<path id="Vector_4" fill-rule="evenodd" clip-rule="evenodd" d="M24 0C10.7452 0 0 10.7452 0 24C0 37.2548 10.7452 48 24 48C37.2548 48 48 37.2548 48 24C48 10.7452 37.2548 0 24 0ZM24 2.4C12.0707 2.4 2.4 12.0707 2.4 24C2.4 35.9293 12.0707 45.6 24 45.6C35.9293 45.6 45.6 35.9293 45.6 24C45.6 12.0707 35.9293 2.4 24 2.4Z" fill="#FFD48A"/>
</g>
</g>
</g>
</g>
<defs>
<filter id="filter0_d_933_22440" x="8.39971" y="2.40117" width="31.2001" height="43.1996" filterUnits="userSpaceOnUse" color-interpolation-filters="sRGB">
<feFlood flood-opacity="0" result="BackgroundImageFix"/>
<feColorMatrix in="SourceAlpha" type="matrix" values="0 0 0 0 0 0 0 0 0 0 0 0 0 0 0 0 0 0 127 0" result="hardAlpha"/>
<feOffset/>
<feGaussianBlur stdDeviation="2.4"/>
<feComposite in2="hardAlpha" operator="out"/>
<feColorMatrix type="matrix" values="0 0 0 0 1 0 0 0 0 0.326923 0 0 0 0 0.3 0 0 0 1 0"/>
<feBlend mode="normal" in2="BackgroundImageFix" result="effect1_dropShadow_933_22440"/>
<feBlend mode="normal" in="SourceGraphic" in2="effect1_dropShadow_933_22440" result="shape"/>
</filter>
<filter id="filter1_d_933_22440" x="-4.8" y="-4.8" width="57.6" height="57.6" filterUnits="userSpaceOnUse" color-interpolation-filters="sRGB">
<feFlood flood-opacity="0" result="BackgroundImageFix"/>
<feColorMatrix in="SourceAlpha" type="matrix" values="0 0 0 0 0 0 0 0 0 0 0 0 0 0 0 0 0 0 127 0" result="hardAlpha"/>
<feOffset/>
<feGaussianBlur stdDeviation="2.4"/>
<feComposite in2="hardAlpha" operator="out"/>
<feColorMatrix type="matrix" values="0 0 0 0 1 0 0 0 0 0.326923 0 0 0 0 0.3 0 0 0 1 0"/>
<feBlend mode="normal" in2="BackgroundImageFix" result="effect1_dropShadow_933_22440"/>
<feBlend mode="normal" in="SourceGraphic" in2="effect1_dropShadow_933_22440" result="shape"/>
</filter>
</defs>
</svg>
