<svg width="26" height="30" viewBox="0 0 26 30" fill="none" xmlns="http://www.w3.org/2000/svg">
<g id="Logo" clip-path="url(#clip0_858_23152)">
<path id="Vector" d="M10.1168 7.40006C9.8164 7.35347 9.8037 7.34797 9.94513 7.32626C10.2161 7.28456 10.8559 7.34138 11.2969 7.4462C12.3262 7.69089 13.2629 8.3177 14.2627 9.43088L14.5283 9.72664L14.9083 9.66554C16.5091 9.4083 18.1376 9.61273 19.4997 10.242C19.8744 10.4151 20.4652 10.7597 20.539 10.8482C20.5626 10.8764 20.6058 11.0581 20.635 11.252C20.7361 11.9226 20.6855 12.4367 20.4804 12.8206C20.3688 13.0295 20.3625 13.0957 20.4376 13.2745C20.4975 13.4173 20.6645 13.5228 20.8299 13.5226C21.1684 13.5222 21.5327 12.975 21.7015 12.2136L21.7686 11.9112L21.9014 12.0617C22.63 12.8872 23.2023 14.013 23.3006 14.8144L23.3262 15.0233L23.2038 14.8333C22.993 14.5065 22.7812 14.284 22.51 14.1045C22.0211 13.7811 21.5042 13.671 20.1353 13.5989C18.8989 13.5337 18.1992 13.4281 17.5053 13.2018C16.3248 12.8169 15.7297 12.3043 14.3274 10.4645C13.7045 9.64734 13.3195 9.19518 12.9366 8.83106C12.0664 8.00373 11.2114 7.56983 10.1168 7.40006Z" fill="#F70277"/>
<path id="Vector_2" d="M20.8183 9.2241C20.8494 8.67654 20.9237 8.3153 21.073 7.98549C21.1321 7.85491 21.1875 7.74805 21.196 7.74805C21.2045 7.74805 21.1789 7.84442 21.1389 7.9622C21.0303 8.28234 21.0125 8.72015 21.0873 9.2296C21.1822 9.87596 21.2362 9.96919 21.9193 10.6674C22.2398 10.9949 22.6125 11.408 22.7476 11.5853L22.9933 11.9077L22.7476 11.6773C22.4471 11.3955 21.7562 10.8459 21.6036 10.7674C21.5013 10.7147 21.486 10.7156 21.4229 10.7784C21.3647 10.8363 21.3525 10.9233 21.3444 11.3346C21.3319 11.9755 21.2445 12.387 21.0336 12.7983C20.9196 13.0208 20.9016 12.9733 21.0048 12.7222C21.0819 12.5347 21.0897 12.4523 21.0891 11.8317C21.0879 10.5851 20.9399 10.2853 20.0719 9.77186C19.852 9.6418 19.4897 9.45419 19.2668 9.35498C19.0439 9.25578 18.8668 9.16933 18.8732 9.1629C18.8978 9.13842 19.7443 9.38548 20.085 9.51652C20.5918 9.71149 20.6755 9.73674 20.737 9.71323C20.7783 9.6975 20.7982 9.57731 20.8183 9.2241Z" fill="#F70277"/>
<path id="Vector_3" d="M10.7009 11.3566C10.091 10.5168 9.71357 9.22916 9.79524 8.26662L9.82054 7.96875L9.95935 7.9941C10.2201 8.04168 10.6697 8.20902 10.8802 8.33688C11.4579 8.68772 11.708 9.14965 11.9625 10.3359C12.037 10.6833 12.1348 11.0764 12.1798 11.2096C12.2522 11.4238 12.5259 11.9243 12.7485 12.2493C12.9088 12.4834 12.8023 12.5943 12.448 12.5623C11.9068 12.5134 11.1738 12.0076 10.7009 11.3566Z" fill="#F70277"/>
<path id="Vector_4" d="M20.0783 17.6069C17.2276 16.4591 16.2236 15.4628 16.2236 13.7818C16.2236 13.5345 16.2322 13.332 16.2425 13.332C16.2529 13.332 16.3632 13.4137 16.4876 13.5135C17.0657 13.9771 17.713 14.1752 19.505 14.4366C20.5595 14.5904 21.153 14.7147 21.7004 14.8962C23.4403 15.4733 24.5168 16.6443 24.7735 18.2393C24.8481 18.7028 24.8043 19.5719 24.6834 20.0299C24.5879 20.3917 24.2966 21.0438 24.2193 21.0688C24.1978 21.0758 24.1769 20.9937 24.1713 20.882C24.142 20.2831 23.8394 19.7 23.3311 19.2632C22.7532 18.7666 21.9767 18.3712 20.0783 17.6069Z" fill="#F70277"/>
<path id="Vector_5" d="M18.0769 18.0835C18.0412 17.871 17.9793 17.5996 17.9393 17.4804L17.8665 17.2637L18.0016 17.4153C18.1886 17.6252 18.3363 17.8937 18.4616 18.2514C18.5571 18.5243 18.5679 18.6055 18.5671 19.0491C18.5664 19.4846 18.5545 19.5759 18.4662 19.8216C18.3271 20.209 18.1544 20.4838 17.8646 20.7787C17.3439 21.3086 16.6744 21.602 15.7083 21.7238C15.5403 21.7449 15.0509 21.7805 14.6206 21.8029C13.5361 21.8593 12.8224 21.9758 12.1811 22.201C12.0888 22.2334 12.0065 22.2531 11.9982 22.2447C11.9722 22.2189 12.4089 21.9586 12.7696 21.7849C13.2781 21.5399 13.7843 21.4062 14.9185 21.2173C15.4789 21.124 16.0575 21.0108 16.2044 20.9658C17.592 20.5403 18.3052 19.4425 18.0769 18.0835Z" fill="#F70277"/>
<path id="Vector_6" d="M19.3836 20.4056C19.0049 19.5914 18.9179 18.8053 19.1254 18.0721C19.1476 17.9938 19.1833 17.9297 19.2048 17.9297C19.2262 17.9297 19.3156 17.978 19.4034 18.0371C19.5779 18.1546 19.9279 18.3524 20.8605 18.8609C22.0243 19.4954 22.6877 19.9867 23.139 20.548C23.5341 21.0396 23.7786 21.5994 23.8964 22.2821C23.963 22.6689 23.9239 23.5994 23.8247 23.9888C23.5118 25.2167 22.7846 26.1811 21.7474 26.7439C21.5954 26.8263 21.4591 26.894 21.4443 26.8944C21.4295 26.8946 21.4849 26.7539 21.5673 26.5815C21.9163 25.8521 21.956 25.1426 21.6922 24.353C21.5306 23.8694 21.2013 23.2794 20.5364 22.2823C19.7634 21.123 19.5738 20.8144 19.3836 20.4056Z" fill="#F70277"/>
<path id="Vector_7" d="M8.67628 24.7983C9.73416 23.9051 11.0504 23.2705 12.2494 23.0758C12.7661 22.9918 13.6268 23.0251 14.1053 23.1476C14.8723 23.3439 15.5584 23.7835 15.9152 24.3073C16.2639 24.8192 16.4135 25.2653 16.5693 26.2579C16.6307 26.6494 16.6976 27.0426 16.7178 27.1316C16.8347 27.646 17.0624 28.0571 17.3445 28.2636C17.7925 28.5915 18.564 28.612 19.3229 28.3159C19.4517 28.2657 19.5635 28.2309 19.5714 28.2388C19.5989 28.2661 19.2168 28.522 18.9471 28.6566C18.5844 28.8378 18.2959 28.9079 17.9126 28.9079C17.2176 28.9079 16.6405 28.5543 16.159 27.8333C16.0642 27.6914 15.8512 27.2664 15.6857 26.8889C15.1773 25.7293 14.9262 25.376 14.3359 24.9894C13.8222 24.653 13.1597 24.5928 12.6613 24.8372C12.0066 25.1582 11.824 25.9948 12.2929 26.525C12.4792 26.7357 12.8268 26.9175 13.111 26.9528C13.6426 27.019 14.0995 26.6145 14.0995 26.0778C14.0995 25.7292 13.9655 25.5304 13.6283 25.3782C13.1677 25.1704 12.6726 25.4133 12.675 25.846C12.676 26.0304 12.7564 26.1463 12.9413 26.23C13.0599 26.2837 13.0627 26.288 12.9659 26.2678C12.5433 26.1802 12.4443 25.6708 12.7841 25.3325C13.1921 24.9265 14.0356 25.1057 14.3253 25.6599C14.447 25.8927 14.4612 26.3563 14.3551 26.6363C14.1176 27.2629 13.4252 27.5924 12.7228 27.4131C12.2446 27.291 12.0499 27.1588 11.4733 26.5649C10.4714 25.5329 10.0825 25.3329 8.63812 25.1074L8.36133 25.0642L8.67628 24.7983Z" fill="#F70277"/>
<path id="Vector_8" fill-rule="evenodd" clip-rule="evenodd" d="M1.12165 1.6798C4.46748 5.74064 9.62571 12.0631 9.88183 12.4171C10.0932 12.7094 10.0137 12.9721 9.65148 13.178C9.45003 13.2926 9.03588 13.4086 8.82852 13.4086C8.594 13.4086 8.32982 13.2957 8.13742 13.1131C8.00139 12.9842 7.45255 12.1646 6.1855 10.1986C5.21602 8.69429 4.40469 7.44638 4.38257 7.4255C4.3314 7.37716 4.33228 7.3788 6.08666 10.5178C7.18826 12.489 7.56014 13.1858 7.56014 13.279C7.56014 13.4686 7.50845 13.5682 7.2746 13.829C6.88478 14.2639 6.71054 14.7525 6.58474 15.7638C6.44367 16.8975 6.04716 17.6983 4.94823 19.0688C4.30497 19.8711 4.19969 20.0181 4.03738 20.3415C3.8329 20.7486 3.77669 20.9767 3.75391 21.4909C3.72984 22.0346 3.77674 22.3858 3.94286 22.9056C4.08825 23.3606 4.24001 23.6611 4.62804 24.2621C4.96289 24.7807 5.15575 25.1662 5.15575 25.3169C5.15575 25.4369 5.17863 25.4371 5.69755 25.3199C6.93929 25.0395 7.94765 24.5463 8.51475 23.9419C8.8657 23.5678 8.94809 23.3612 8.95076 22.8486C8.95251 22.5133 8.94073 22.4431 8.85012 22.2501C8.70257 21.9362 8.43396 21.6751 7.84191 21.2704C7.06622 20.7402 6.73491 20.3132 6.64337 19.7261C6.56828 19.2444 6.65541 18.9045 7.08453 18.0051C7.52871 17.0742 7.63877 16.6774 7.71324 15.7391C7.76132 15.1328 7.82792 14.8937 8.00211 14.7018C8.18376 14.5017 8.3473 14.4339 8.79689 14.3725C9.52985 14.2723 9.99656 14.0827 10.3802 13.7292C10.713 13.4225 10.8523 13.127 10.8737 12.6822L10.8899 12.345L10.7039 12.1282C10.0304 11.3429 0.670614 1.0625 0.629162 1.0625C0.620312 1.0625 0.841938 1.34031 1.12165 1.6798ZM5.5338 22.106C5.68608 21.8364 5.60518 21.4897 5.35046 21.3203C5.10977 21.1603 4.73589 21.2357 4.73589 21.4442C4.73589 21.5078 4.77111 21.5542 4.85042 21.595C4.98393 21.6637 4.99365 21.7409 4.88858 21.8989C4.78217 22.0588 4.79076 22.1994 4.9128 22.295C5.10951 22.449 5.38795 22.3643 5.5338 22.106Z" fill="#F70277"/>
<path id="Vector_9" fill-rule="evenodd" clip-rule="evenodd" d="M11.3524 14.5497C11.0083 14.6554 10.6738 15.0201 10.5702 15.4025C10.5071 15.6358 10.5429 16.045 10.6376 16.1714C10.7904 16.3755 10.9382 16.4293 11.3385 16.4265C12.122 16.421 12.8033 16.0849 12.8825 15.6648C12.9474 15.3204 12.6482 14.8431 12.2361 14.6336C12.0235 14.5255 11.5712 14.4826 11.3524 14.5497ZM12.2684 15.266C12.3893 15.0944 12.3364 14.9088 12.1309 14.7833C11.7395 14.5443 11.1476 14.742 11.1476 15.1118C11.1476 15.2959 11.4563 15.4966 11.7392 15.4966C11.9275 15.4966 12.1852 15.3844 12.2684 15.266Z" fill="#F70277"/>
</g>
<defs>
<clipPath id="clip0_858_23152">
<rect width="24.6857" height="28.8" fill="white" transform="translate(0.371582 0.599609)"/>
</clipPath>
</defs>
</svg>
