<svg width="48" height="48" viewBox="0 0 48 48" fill="none" xmlns="http://www.w3.org/2000/svg">
<g id="Token=USDC">
<rect width="48" height="48" rx="24" fill="#2775CA"/>
<path id="Vector" d="M30.6001 27.7992C30.6001 24.2993 28.5001 23.0993 24.3001 22.5994C21.3001 22.1993 20.7001 21.3994 20.7001 19.9992C20.7001 18.5991 21.7002 17.6993 23.7001 17.6993C25.5001 17.6993 26.5002 18.2993 27.0001 19.7993C27.1002 20.0993 27.4002 20.2992 27.7002 20.2992H29.3C29.7001 20.2992 30.0001 19.9992 30.0001 19.5994V19.4993C29.6 17.2992 27.8 15.5993 25.5001 15.3994V12.9994C25.5001 12.5993 25.2001 12.2993 24.7002 12.1992H23.2002C22.8001 12.1992 22.5001 12.4992 22.4 12.9994V15.2993C19.4 15.6994 17.5002 17.6993 17.5002 20.1994C17.5002 23.4994 19.5001 24.7992 23.7001 25.2994C26.5002 25.7993 27.4002 26.3993 27.4002 27.9994C27.4002 29.5995 26 30.6994 24.1002 30.6994C21.5 30.6994 20.6 29.5992 20.3 28.0992C20.2002 27.6994 19.9002 27.4992 19.6002 27.4992H17.9C17.5002 27.4992 17.2002 27.7992 17.2002 28.1993V28.2994C17.6 30.7992 19.2001 32.5992 22.5001 33.0994V35.4994C22.5001 35.8992 22.8001 36.1992 23.3 36.2993H24.8C25.2001 36.2993 25.5001 35.9993 25.6002 35.4994V33.0994C28.6002 32.5992 30.6001 30.4992 30.6001 27.7992Z" fill="white"/>
<path id="Vector_2" d="M18.9 38.2998C11.1 35.5 7.09992 26.8 10.0001 19.0998C11.5001 14.8998 14.8001 11.6999 18.9 10.1999C19.3001 10 19.5 9.7 19.5 9.19984V7.79992C19.5 7.39984 19.3001 7.09984 18.9 7C18.7999 7 18.6 7 18.4999 7.09984C9 10.0998 3.79992 20.2 6.79992 29.6999C8.59992 35.2998 12.9 39.5999 18.4999 41.3999C18.9 41.5998 19.3001 41.3999 19.3999 40.9998C19.5 40.9 19.5 40.7999 19.5 40.6V39.1998C19.5 38.8998 19.2 38.5 18.9 38.2998ZM29.5001 7.09984C29.1 6.89992 28.6999 7.09984 28.6001 7.49992C28.5 7.6 28.5 7.69984 28.5 7.9V9.29992C28.5 9.7 28.8 10.0998 29.1 10.3C36.9 13.0998 40.9001 21.7998 37.9999 29.5C36.4999 33.7 33.1999 36.8999 29.1 38.3999C28.6999 38.5998 28.5 38.8998 28.5 39.4V40.7999C28.5 41.2 28.6999 41.5 29.1 41.5998C29.2001 41.5998 29.4 41.5998 29.5001 41.5C39 38.5 44.2001 28.3998 41.2001 18.8999C39.4001 13.1999 34.9999 8.89984 29.5001 7.09984Z" fill="white"/>
</g>
</svg>
