<svg width="48" height="48" viewBox="0 0 48 48" fill="none" xmlns="http://www.w3.org/2000/svg">
<g id="Token=USDT">
<rect width="48" height="48" rx="24" fill="#53AE94"/>
<path id="Vector" d="M26.9623 20.803V17.2328H35.1266V11.793H12.8949V17.2328H21.0602V20.8002C14.4242 21.105 9.43457 22.4192 9.43457 23.9936C9.43457 25.568 14.4266 26.8822 21.0602 27.189V38.625H26.9642V27.188C33.5882 26.8823 38.5677 25.569 38.5677 23.996C38.5677 22.423 33.5882 21.1098 26.9642 20.804M26.9642 26.2194V26.2165C26.7976 26.227 25.9418 26.2784 24.0362 26.2784C22.5127 26.2784 21.4408 26.2352 21.0631 26.2155V26.2203C15.2003 25.9606 10.8242 24.9397 10.8242 23.7181C10.8242 22.4965 15.2008 21.477 21.0631 21.2168V25.2032C21.4471 25.2296 22.5453 25.2944 24.0611 25.2944C25.8818 25.2944 26.7971 25.2186 26.9651 25.2032V21.2168C32.8163 21.4774 37.1824 22.4994 37.1824 23.7166C37.1824 24.9339 32.8144 25.9563 26.9651 26.217" fill="white"/>
</g>
</svg>
