<svg width="48" height="48" viewBox="0 0 48 48" fill="none" xmlns="http://www.w3.org/2000/svg">
<g clip-path="url(#clip0_858_23178)">
<path fill-rule="evenodd" clip-rule="evenodd" d="M24 0C37.2518 0 48 10.7443 48 24C48 37.2518 37.2518 48 24 48C10.7443 48 0 37.2538 0 24C0 10.7443 10.7443 0 24 0Z" fill="white"/>
<path fill-rule="evenodd" clip-rule="evenodd" d="M39.1394 10.0737L37.8223 11.3908C44.3407 18.5217 44.3407 29.4445 37.8223 36.5735L39.1394 37.8906C46.3912 30.0225 46.3912 17.9092 39.1394 10.041V10.0737Z" fill="#5A5564"/>
<path fill-rule="evenodd" clip-rule="evenodd" d="M11.4181 10.1888C18.5452 3.67041 29.4719 3.67041 36.6008 10.1888L37.918 8.87169C30.0517 1.61601 17.9327 1.61601 10.0684 8.86977L11.4181 10.1888Z" fill="#5A5564"/>
<path fill-rule="evenodd" clip-rule="evenodd" d="M10.1895 36.586C3.67882 29.4609 3.67882 18.5457 10.1895 11.4167L8.8705 10.0996C1.61674 17.9678 1.61674 30.083 8.8705 37.9473L10.1895 36.586Z" fill="#5A5564"/>
<path fill-rule="evenodd" clip-rule="evenodd" d="M36.5858 37.8027C29.4587 44.3231 18.5339 44.3231 11.405 37.8027L10.0859 39.1237C17.9522 46.3755 30.0712 46.3755 37.9355 39.1237L36.5858 37.8027Z" fill="#5A5564"/>
<path fill-rule="evenodd" clip-rule="evenodd" d="M27.9936 20.6433C27.9936 23.2776 23.8733 22.9589 22.5619 22.9589V18.3163C23.8733 18.3163 27.9936 17.9035 27.9936 20.6433ZM29.0688 27.8529C29.0688 30.7329 24.1325 30.4046 22.5581 30.4046V25.2936C24.1325 25.2936 29.0688 24.8443 29.0688 27.8529ZM32.3213 19.6027C32.0583 16.8513 29.6871 15.9297 26.6842 15.6475V11.8574H24.3648V15.5745C23.7523 15.5745 23.1303 15.5745 22.5101 15.5937V11.8574H20.2042V15.6705H18.7277H15.504V18.1531C15.504 18.1531 17.2167 18.1224 17.1917 18.1531C17.833 18.084 18.4147 18.5352 18.5088 19.1726V29.6155C18.4935 29.8344 18.3936 30.0379 18.2304 30.1838C18.0653 30.3259 17.8483 30.3969 17.6314 30.3854C17.6602 30.4085 15.9437 30.3854 15.9437 30.3854L15.4829 33.1541H18.505H20.1658V37.0305H22.4871V33.2117H24.3399V37.0113H26.6631V33.1829C30.5818 32.9429 33.3159 31.979 33.6576 28.308C33.936 25.3569 32.5459 24.0379 30.3283 23.5061C31.6762 22.8225 32.5229 21.6129 32.3213 19.6027Z" fill="#F09242"/>
<path fill-rule="evenodd" clip-rule="evenodd" d="M23.9962 1.872C11.783 1.87968 1.8912 11.7811 1.89312 23.9923C1.89504 36.2035 11.7946 46.1011 24.0077 46.1011C36.2189 46.103 46.1222 36.2054 46.1261 23.9942C46.1088 11.783 36.2093 1.88736 23.9962 1.88352V1.872ZM23.9962 48C10.7424 47.9981 -0.00191974 37.2518 2.57287e-07 24C2.57287e-07 10.7443 10.7443 0.00192 23.9981 0C37.2499 0 47.9981 10.7424 48 23.9962C47.9846 37.248 37.2461 47.9846 23.9962 48Z" fill="#282138"/>
</g>
<defs>
<clipPath id="clip0_858_23178">
<rect width="48" height="48" fill="white"/>
</clipPath>
</defs>
</svg>
