<svg width="48" height="48" viewBox="0 0 48 48" fill="none" xmlns="http://www.w3.org/2000/svg">
<g id="Token=WstMATIC" clip-path="url(#clip0_933_22450)">
<path id="Vector" d="M48 24C48 10.7452 37.2548 0 24 0C10.7452 0 0 10.7452 0 24C0 37.2548 10.7452 48 24 48C37.2548 48 48 37.2548 48 24Z" fill="#00A3FF"/>
<path id="Vector_2" d="M31.4039 19.0553C30.875 18.752 30.1988 18.752 29.6006 19.0553L25.3872 21.5516L22.5263 23.1379L18.3909 25.6255C17.8621 25.9288 17.1859 25.9288 16.5877 25.6255L13.3539 23.6578C12.8251 23.3545 12.4524 22.7477 12.4524 22.0717V18.2926C12.4524 17.6858 12.7557 17.0877 13.3539 16.7063L16.5877 14.8168C17.1165 14.5135 17.7927 14.5135 18.3909 14.8168L21.6247 16.7843C22.1535 17.0877 22.5263 17.6945 22.5263 18.3706V20.8669L25.3872 19.2027V16.637C25.3872 16.0303 25.0838 15.4322 24.4856 15.0508L18.4689 11.4971C17.9401 11.1937 17.2639 11.1937 16.6657 11.4971L10.5017 15.1288C9.90353 15.4322 9.6001 16.0389 9.6001 16.637V23.7359C9.6001 24.3427 9.90353 24.9407 10.5017 25.3221L16.5963 28.8759C17.1252 29.1793 17.8014 29.1793 18.3996 28.8759L22.5349 26.4575L25.3959 24.7934L29.5313 22.375C30.0601 22.0717 30.7363 22.0717 31.3345 22.375L34.5681 24.2647C35.097 24.568 35.4698 25.1747 35.4698 25.8508V29.63C35.4698 30.2367 35.1663 30.8348 34.5681 31.2161L31.4125 33.1057C30.8837 33.409 30.2075 33.409 29.6093 33.1057L26.3669 31.2161C25.838 30.9128 25.4653 30.3061 25.4653 29.63V27.2116L22.6043 28.8759V31.3721C22.6043 31.9789 22.9077 32.5769 23.5059 32.9583L29.6006 36.5121C30.1295 36.8155 30.8057 36.8155 31.4039 36.5121L37.4984 32.9583C38.0273 32.6549 38.4001 32.0482 38.4001 31.3721V24.1953C38.4001 23.5886 38.0966 22.9905 37.4984 22.6091L31.4039 19.0553Z" fill="white"/>
<path id="Vector_3" d="M47.8499 24.0004C47.8499 10.8284 37.1719 0.150391 23.9999 0.150391C10.8279 0.150391 0.149902 10.8284 0.149902 24.0004C0.149902 37.1724 10.8279 47.8504 23.9999 47.8504C37.1719 47.8504 47.8499 37.1724 47.8499 24.0004Z" stroke="#0F171F" stroke-opacity="0.15" stroke-width="0.3"/>
</g>
<defs>
<clipPath id="clip0_933_22450">
<rect width="48" height="48" fill="white"/>
</clipPath>
</defs>
</svg>
