<svg width="16" height="16" viewBox="0 0 16 16" fill="none" xmlns="http://www.w3.org/2000/svg">
<g id="MagnifyingGlass">
<path id="Vector" d="M14.5305 13.4703L11.5624 10.5009C12.4524 9.34119 12.8678 7.88639 12.7246 6.4316C12.5814 4.97682 11.8901 3.631 10.7911 2.66713C9.69203 1.70327 8.26751 1.19355 6.80648 1.24137C5.34544 1.28918 3.9573 1.89096 2.92364 2.92462C1.88998 3.95828 1.2882 5.34642 1.24039 6.80746C1.19257 8.26849 1.7023 9.69301 2.66616 10.792C3.63002 11.8911 4.97585 12.5823 6.43063 12.7256C7.88541 12.8688 9.34021 12.4533 10.4999 11.5634L13.4705 14.5346C13.5403 14.6044 13.6231 14.6597 13.7143 14.6975C13.8054 14.7353 13.9031 14.7547 14.0018 14.7547C14.1005 14.7547 14.1981 14.7353 14.2893 14.6975C14.3805 14.6597 14.4633 14.6044 14.533 14.5346C14.6028 14.4649 14.6581 14.3821 14.6959 14.2909C14.7337 14.1997 14.7531 14.1021 14.7531 14.0034C14.7531 13.9047 14.7337 13.807 14.6959 13.7159C14.6581 13.6247 14.6028 13.5419 14.533 13.4721L14.5305 13.4703ZM2.74991 7.00089C2.74991 6.16032 2.99917 5.33863 3.46617 4.63972C3.93316 3.94081 4.59692 3.39608 5.37351 3.0744C6.1501 2.75273 7.00463 2.66857 7.82905 2.83255C8.65347 2.99654 9.41075 3.40131 10.0051 3.99569C10.5995 4.59006 11.0043 5.34734 11.1683 6.17176C11.3322 6.99618 11.2481 7.85071 10.9264 8.6273C10.6047 9.40388 10.06 10.0676 9.36109 10.5346C8.66218 11.0016 7.84049 11.2509 6.99991 11.2509C5.8731 11.2497 4.79277 10.8016 3.99599 10.0048C3.19921 9.20804 2.75107 8.12771 2.74991 7.00089Z" fill="#14151C"/>
</g>
</svg>
