<svg width="16" height="16" viewBox="0 0 16 16" fill="none" xmlns="http://www.w3.org/2000/svg">
<g id="Type=Arbitrum">
<path d="M0 4C0 1.79086 1.79086 0 4 0H12C14.2091 0 16 1.79086 16 4V12C16 14.2091 14.2091 16 12 16H4C1.79086 16 0 14.2091 0 12V4Z" fill="#2F2F2E"/>
<path id="Vector" fill-rule="evenodd" clip-rule="evenodd" d="M11.8581 5.28498C12.1054 5.44038 12.2633 5.70726 12.2749 5.99882V9.98814C12.264 10.2499 12.1423 10.4915 11.9355 10.6518L8.3323 12.7385C8.22946 12.7788 8.12078 12.7992 8.00934 12.7992C7.88778 12.7992 7.75294 12.7727 7.65918 12.7272C7.6473 12.7214 7.61366 12.7029 7.56426 12.6752C7.53234 12.6573 7.4935 12.6353 7.4499 12.6105L6.13102 11.8512L5.02826 11.2167L8.18258 6.0115L9.57682 6.00642L6.43082 11.3427L7.89842 12.1868C7.96462 12.2137 8.04278 12.2151 8.10958 12.1909L9.34982 11.4722L8.0257 9.39402L8.83406 8.02226L10.5731 10.7633L10.9154 10.5649L9.08102 7.59806L9.78602 6.40178L11.6812 9.3535V6.0207C11.6767 5.9251 11.6259 5.8377 11.545 5.78614L8.12378 3.81823C8.04378 3.77888 7.9423 3.77935 7.86238 3.81947C7.85158 3.8249 4.45286 5.79234 4.43706 5.80354C4.3741 5.84874 4.33222 5.91554 4.31874 5.9905C4.31674 6.00178 4.31526 6.0133 4.31454 6.02494L4.31974 9.2101L6.08966 6.4669C6.31254 6.10314 6.7981 5.98594 7.24878 5.9923L7.77778 6.00626L4.66082 11.005L3.72412 10.4653V10.1253L3.72427 5.99706C3.73815 5.72698 3.87271 5.48114 4.09346 5.3229C4.13534 5.29286 4.17986 5.26646 4.22614 5.24434C4.22614 5.24434 7.56786 3.30619 7.59682 3.29161C7.8419 3.16832 8.14746 3.1685 8.39206 3.29167L11.8581 5.28498Z" fill="white"/>
</g>
</svg>
