<svg width="16" height="16" viewBox="0 0 16 16" fill="none" xmlns="http://www.w3.org/2000/svg">
<g id="Type=Base">
<g clip-path="url(#clip0_904_5682)">
<path d="M0 4C0 1.79086 1.79086 0 4 0H12C14.2091 0 16 1.79086 16 4V12C16 14.2091 14.2091 16 12 16H4C1.79086 16 0 14.2091 0 12V4Z" fill="#2F2F2E"/>
<path id="Vector" d="M8.00043 12C10.2096 12 12.0004 10.2091 12.0004 8C12.0004 5.79088 10.2096 4 8.00043 4C5.89095 4 4.16287 5.63292 4.01123 7.70372H9.24891V8.29628H4.01123C4.16287 10.3671 5.89095 12 8.00043 12Z" fill="white"/>
</g>
</g>
<defs>
<clipPath id="clip0_904_5682">
<path d="M0 4C0 1.79086 1.79086 0 4 0H12C14.2091 0 16 1.79086 16 4V12C16 14.2091 14.2091 16 12 16H4C1.79086 16 0 14.2091 0 12V4Z" fill="white"/>
</clipPath>
</defs>
</svg>
