<svg width="16" height="16" viewBox="0 0 16 16" fill="none" xmlns="http://www.w3.org/2000/svg">
<g id="Type=Optimism">
<path d="M0 4C0 1.79086 1.79086 0 4 0H12C14.2091 0 16 1.79086 16 4V12C16 14.2091 14.2091 16 12 16H4C1.79086 16 0 14.2091 0 12V4Z" fill="#2F2F2E"/>
<path id="Vector" fill-rule="evenodd" clip-rule="evenodd" d="M3.87987 10.0974C4.23547 10.3594 4.69159 10.4905 5.24839 10.4905C5.92215 10.4905 6.46015 10.3337 6.86251 10.0203C7.26491 9.7021 7.54795 9.22254 7.71171 8.58154C7.80995 8.18854 7.89419 7.78382 7.96435 7.36742C7.98775 7.2177 7.99947 7.09374 7.99947 6.99546C7.99947 6.66798 7.91755 6.38726 7.75383 6.15334C7.59007 5.9147 7.36551 5.7369 7.08011 5.61994C6.79467 5.4983 6.47187 5.4375 6.11159 5.4375C4.78755 5.4375 3.96642 6.08082 3.64828 7.36742C3.536 7.83998 3.44945 8.2447 3.3886 8.58154C3.36522 8.73126 3.35352 8.85762 3.35352 8.96054C3.35352 9.45182 3.52897 9.83078 3.87987 10.0974ZM6.01335 9.24826C5.83087 9.40266 5.60867 9.47986 5.34663 9.47986C4.89751 9.47986 4.67291 9.26466 4.67291 8.83418C4.67291 8.73126 4.68227 8.63302 4.70099 8.53946C4.78519 8.08562 4.86943 7.70198 4.95363 7.3885C5.03315 7.07034 5.16419 6.8341 5.34663 6.67966C5.53379 6.52526 5.75835 6.44806 6.02039 6.44806C6.46483 6.44806 6.68707 6.66094 6.68707 7.0867C6.68707 7.18966 6.67771 7.29026 6.65903 7.3885C6.60287 7.71598 6.52099 8.09966 6.41335 8.53946C6.33387 8.85762 6.20051 9.09386 6.01335 9.24826ZM8.20231 10.371C8.23039 10.4038 8.27019 10.4202 8.32163 10.4202H9.27611C9.32287 10.4202 9.36731 10.4038 9.40943 10.371C9.45151 10.3383 9.47723 10.2962 9.48663 10.2447L9.80943 8.70778H10.7569C11.3698 8.70778 11.8517 8.5791 12.2026 8.32178C12.5582 8.06446 12.7945 7.66674 12.9114 7.1287C12.9395 7.00238 12.9535 6.8807 12.9535 6.76378C12.9535 6.3567 12.7945 6.04562 12.4763 5.83034C12.1628 5.61514 11.7464 5.50754 11.2271 5.50754H9.36027C9.31351 5.50754 9.26907 5.52394 9.22695 5.55666C9.18483 5.58942 9.15911 5.63154 9.14975 5.68298L8.18127 10.2447C8.17191 10.2915 8.17891 10.3336 8.20231 10.371ZM11.3183 7.57786C11.1733 7.68546 11.0025 7.73926 10.806 7.73926H9.99891L10.2656 6.48306H11.1078C11.2996 6.48306 11.4353 6.52046 11.5148 6.59534C11.5944 6.6655 11.6341 6.76842 11.6341 6.90414C11.6341 6.96494 11.6271 7.0351 11.6131 7.11466C11.5663 7.31586 11.468 7.47026 11.3183 7.57786Z" fill="white"/>
</g>
</svg>
