<svg width="16" height="16" viewBox="0 0 16 16" fill="none" xmlns="http://www.w3.org/2000/svg">
<g id="Type=Polygon">
<path d="M0 4C0 1.79086 1.79086 0 4 0H12C14.2091 0 16 1.79086 16 4V12C16 14.2091 14.2091 16 12 16H4C1.79086 16 0 14.2091 0 12V4Z" fill="#2F2F2E"/>
<path id="Vector" d="M10.4681 6.35113C10.2918 6.25001 10.0664 6.25001 9.86704 6.35113L8.46255 7.18321L7.50891 7.71197L6.13048 8.54117C5.9542 8.64229 5.7288 8.64229 5.5294 8.54117L4.45148 7.88529C4.2752 7.78417 4.15096 7.58193 4.15096 7.35657V6.09689C4.15096 5.89461 4.25208 5.69525 4.45148 5.56813L5.5294 4.93829C5.70568 4.83717 5.93108 4.83717 6.13048 4.93829L7.2084 5.59413C7.38468 5.69525 7.50891 5.89753 7.50891 6.12289V6.95497L8.46255 6.40025V5.54501C8.46255 5.34277 8.36144 5.14341 8.16204 5.01629L6.15648 3.8317C5.9802 3.73058 5.7548 3.73058 5.5554 3.8317L3.50074 5.04229C3.30134 5.14341 3.2002 5.34565 3.2002 5.54501V7.91133C3.2002 8.11357 3.30134 8.31293 3.50074 8.44005L5.53228 9.62465C5.70856 9.72577 5.93396 9.72577 6.13336 9.62465L7.5118 8.81853L8.46548 8.26381L9.84392 7.45769C10.0202 7.35657 10.2456 7.35657 10.445 7.45769L11.5229 8.08757C11.6992 8.18869 11.8234 8.39093 11.8234 8.61629V9.87601C11.8234 10.0782 11.7223 10.2776 11.5229 10.4047L10.471 11.0346C10.2947 11.1357 10.0693 11.1357 9.86992 11.0346L8.78912 10.4047C8.61284 10.3036 8.4886 10.1014 8.4886 9.87601V9.06989L7.53492 9.62465V10.4567C7.53492 10.659 7.63608 10.8583 7.83548 10.9854L9.86704 12.17C10.0433 12.2712 10.2687 12.2712 10.4681 12.17L12.4996 10.9854C12.6759 10.8843 12.8002 10.6821 12.8002 10.4567V8.06445C12.8002 7.86221 12.699 7.66285 12.4996 7.53573L10.4681 6.35113Z" fill="white"/>
</g>
</svg>
