<svg width="16" height="16" viewBox="0 0 16 16" fill="none" xmlns="http://www.w3.org/2000/svg">
<g id="Type=Scroll">
<path d="M0 4C0 1.79086 1.79086 0 4 0H12C14.2091 0 16 1.79086 16 4V12C16 14.2091 14.2091 16 12 16H4C1.79086 16 0 14.2091 0 12V4Z" fill="#2F2F2E"/>
<path id="Vector" fill-rule="evenodd" clip-rule="evenodd" d="M4.71638 6.99165C4.36958 6.66653 4.13114 6.24389 4.13114 5.74537V5.69121C4.16366 4.84589 4.85726 4.15229 5.70258 4.13065H11.1105C11.2514 4.14149 11.3597 4.23901 11.3597 4.37989V8.96405C11.4523 8.98085 11.5122 8.99769 11.5901 9.01957C11.6125 9.02589 11.6366 9.03265 11.6632 9.03989C11.7607 9.07241 11.8908 9.14825 11.8908 9.14825V4.37989C11.8799 3.9464 11.5331 3.59961 11.0997 3.59961H5.70258C4.53214 3.62129 3.6001 4.57497 3.6001 5.74537C3.6001 6.42813 3.91439 7.01333 4.4129 7.41433C4.44542 7.44681 4.47794 7.47933 4.57546 7.47933C4.73802 7.47933 4.84642 7.34929 4.83558 7.21925C4.83558 7.10005 4.79222 7.05669 4.71638 6.99165ZM10.9696 9.26769H6.73214C6.45038 9.26769 6.22278 9.49529 6.22278 9.78789V10.3948C6.23362 10.6765 6.47202 10.915 6.75382 10.915H7.0681V10.3948H6.75382V9.79873H6.92722C7.45826 9.79873 7.85922 10.2972 7.85922 10.8282C7.85922 11.3051 7.42574 11.9011 6.71046 11.8578C6.07106 11.8144 5.72426 11.2509 5.72426 10.8282V5.65889C5.72426 5.43133 5.52918 5.23625 5.30158 5.23625H4.87894V5.76725H5.19322V10.8391C5.17154 11.8686 5.93018 12.3888 6.71046 12.3888L10.9804 12.3996C11.8366 12.3996 12.541 11.706 12.541 10.8391C12.5302 9.97213 11.8366 9.26769 10.9696 9.26769ZM11.9991 10.8608C11.9775 11.4134 11.5223 11.8578 10.9696 11.8578L8.00014 11.847C8.23854 11.576 8.37942 11.2184 8.37942 10.8282C8.37942 10.2214 8.02178 9.79873 8.02178 9.79873H10.9804C11.544 9.79873 12.01 10.2647 12.01 10.8282L11.9991 10.8608ZM6.63462 5.85385H9.8317C9.98342 5.85385 10.0918 5.73461 10.0918 5.59373C10.0918 5.45285 9.97258 5.33365 9.8317 5.33365H6.63462V5.85385ZM9.8317 8.34641H6.63462V7.81537H9.8317C9.97258 7.81537 10.0918 7.93457 10.0918 8.07545C10.0918 8.22717 9.98342 8.34641 9.8317 8.34641ZM6.63466 7.10021H10.3953C10.5361 7.10021 10.6554 6.98101 10.6554 6.82929C10.6554 6.68841 10.5361 6.56921 10.3953 6.56921H6.63466V7.10021Z" fill="white"/>
</g>
</svg>
